<?xml version="1.0" standalone="no"?>
<!DOCTYPE svg PUBLIC "-//W3C//DTD SVG 20010904//EN"
 "http://www.w3.org/TR/2001/REC-SVG-20010904/DTD/svg10.dtd">
<svg version="1.0" xmlns="http://www.w3.org/2000/svg"
 width="840.000000pt" height="758.000000pt" viewBox="0 0 840.000000 758.000000"
 preserveAspectRatio="xMidYMid meet">

<g transform="translate(0.000000,758.000000) scale(0.100000,-0.100000)"
fill="#000000" stroke="none">
<path d="M4035 7150 c-171 -15 -374 -63 -530 -125 -707 -279 -1198 -921 -1276
-1665 -15 -146 -6 -399 20 -545 22 -120 20 -125 -35 -125 -30 0 -64 -25 -64
-48 0 -6 17 -49 38 -94 44 -95 84 -135 144 -144 23 -4 42 -13 45 -23 3 -9 16
-39 28 -67 l23 -52 -29 -6 c-39 -7 -38 -34 2 -100 57 -92 87 -124 138 -143 36
-13 60 -32 93 -73 58 -72 63 -87 32 -94 -34 -9 -30 -31 17 -92 80 -104 161
-154 249 -154 17 0 63 -26 125 -70 355 -252 728 -372 1160 -373 406 -1 721 90
1073 307 311 193 575 486 738 823 59 122 71 153 59 153 -2 0 -35 -22 -73 -50
-86 -63 -122 -71 -155 -38 -30 30 -68 127 -75 191 -6 62 17 96 112 164 39 28
107 82 151 118 82 69 123 95 148 95 21 0 27 48 28 214 l0 146 31 0 c27 0 46
15 126 98 110 113 132 145 132 189 0 53 -69 213 -91 213 -5 0 -59 -45 -120
-101 -61 -55 -113 -98 -116 -96 -2 3 -11 31 -20 63 l-15 58 44 41 c24 22 72
65 106 96 57 51 62 59 62 98 0 44 -73 205 -112 248 -26 28 -35 23 -143 -69
-44 -37 -82 -68 -85 -68 -3 0 -32 48 -65 106 -148 262 -359 488 -615 658 -262
175 -530 278 -832 321 -134 19 -357 26 -473 15z m-85 -1428 c19 -9 44 -31 55
-48 31 -46 117 -252 122 -294 7 -50 -18 -95 -66 -120 -78 -39 -463 -153 -523
-154 -84 -1 -103 17 -166 163 -62 145 -78 197 -68 236 14 56 52 77 272 147
306 99 314 100 374 70z m1175 -266 c27 -18 124 -191 136 -244 10 -47 -9 -92
-53 -125 -19 -15 -130 -72 -247 -128 -183 -87 -221 -102 -267 -103 -47 -1 -57
3 -83 29 -32 32 -128 217 -137 264 -7 34 17 89 49 113 13 9 73 37 133 61 61
25 146 62 190 82 169 79 222 88 279 51z m-895 -334 c41 -22 91 -99 145 -225
79 -183 43 -212 -405 -333 -163 -43 -241 -44 -286 -4 -28 26 -123 214 -144
285 -10 34 -9 47 3 77 20 47 43 59 229 112 84 24 194 58 243 74 106 35 167 39
215 14z m1135 -174 c29 -13 123 -177 132 -231 3 -19 -1 -48 -10 -70 -19 -44
-54 -68 -294 -196 -253 -136 -303 -135 -382 4 -59 102 -75 157 -57 198 7 18
20 38 29 45 31 26 512 262 534 262 12 0 34 -5 48 -12z m-2106 -104 c45 -9 78
-47 126 -149 76 -158 81 -215 22 -240 -29 -12 -174 -32 -358 -50 -118 -11
-163 13 -224 120 -39 69 -73 170 -67 200 7 37 37 53 122 65 41 6 129 22 195
35 138 27 142 27 184 19z m1230 -284 c19 -5 45 -20 59 -32 30 -28 132 -232
132 -264 0 -28 -45 -82 -79 -96 -14 -5 -123 -39 -241 -75 -341 -104 -372 -99
-478 81 -78 133 -86 166 -46 207 30 32 24 30 354 123 265 74 248 71 299 56z"/>
<path d="M6546 5943 c-26 -32 -49 -69 -53 -83 -13 -49 46 -222 78 -228 17 -3
94 99 104 139 6 27 -55 221 -72 226 -6 2 -32 -22 -57 -54z"/>
<path d="M1320 4739 c0 -40 66 -165 101 -192 41 -31 210 -90 233 -81 9 4 16
17 15 33 -1 38 -69 171 -100 193 -27 20 -186 68 -226 68 -17 0 -23 -6 -23 -21z"/>
<path d="M1464 4416 c-8 -20 53 -139 90 -177 35 -36 59 -49 152 -84 101 -38
144 -46 151 -29 6 15 -58 137 -90 172 -12 13 -34 30 -48 37 -24 13 -237 95
-246 95 -2 0 -6 -6 -9 -14z"/>
<path d="M1855 4306 c-23 -17 -16 -36 44 -129 53 -81 77 -97 182 -121 81 -19
261 -44 277 -38 22 7 12 35 -38 112 -87 133 -96 138 -309 165 -69 9 -128 18
-131 20 -4 3 -15 -1 -25 -9z"/>
<path d="M2069 3939 c-19 -11 8 -60 72 -132 55 -62 99 -80 304 -122 139 -29
195 -32 195 -11 0 27 -118 165 -157 184 -40 20 -79 29 -258 62 -60 11 -117 22
-126 24 -9 2 -23 0 -30 -5z"/>
<path d="M4492 2238 c-19 -19 -17 -1027 2 -1072 28 -66 113 -106 186 -86 l40
11 0 573 0 574 -22 6 c-42 11 -193 7 -206 -6z"/>
<path d="M7770 2243 c-8 -3 -18 -11 -22 -17 -12 -18 -9 -995 2 -1038 24 -87
105 -130 198 -106 l42 10 0 329 0 329 88 0 c55 0 92 4 100 12 7 7 12 41 12 83
0 42 -5 76 -12 83 -8 8 -45 12 -100 12 l-88 0 0 145 c0 132 -2 145 -19 155
-20 10 -175 13 -201 3z"/>
<path d="M1163 2200 c-21 -9 -23 -16 -23 -85 0 -60 3 -77 16 -82 9 -3 60 -6
115 -7 78 -1 102 2 109 14 13 19 12 131 0 150 -11 18 -181 26 -217 10z"/>
<path d="M3728 1966 c-99 -18 -176 -44 -199 -67 -18 -18 -19 -43 -19 -532 0
-512 0 -513 23 -557 32 -64 97 -96 170 -84 l52 9 3 187 2 188 103 -7 c202 -12
318 45 388 191 41 87 52 154 46 286 -8 205 -75 313 -226 371 -71 27 -232 34
-343 15z m242 -224 c44 -22 68 -65 81 -142 18 -116 -18 -232 -84 -267 -34 -18
-109 -22 -169 -10 l-38 8 0 205 c0 203 0 205 23 214 39 16 149 11 187 -8z"/>
<path d="M548 1950 c-193 -34 -310 -179 -325 -401 -17 -254 85 -422 286 -469
113 -27 335 9 395 63 l25 22 -31 83 c-36 95 -20 90 -163 57 -121 -29 -199 -5
-236 73 -18 37 -21 57 -17 140 4 110 21 151 78 189 40 28 105 30 197 7 35 -9
70 -14 77 -11 13 5 66 140 66 168 0 17 -64 49 -135 67 -61 16 -164 22 -217 12z"/>
<path d="M2863 1945 c-150 -42 -243 -144 -279 -304 -20 -87 -15 -246 10 -325
21 -68 80 -150 133 -185 55 -37 158 -61 256 -61 80 0 212 29 260 57 51 30 53
43 22 118 -16 37 -34 69 -41 72 -7 2 -43 -5 -81 -17 -88 -28 -186 -30 -239 -4
-45 22 -84 75 -84 115 l0 28 225 3 225 3 27 28 c27 26 28 32 27 120 -1 111
-27 179 -98 255 -87 93 -237 133 -363 97z m182 -199 c39 -17 64 -50 72 -98 4
-27 1 -37 -12 -42 -9 -3 -75 -3 -147 1 l-130 6 5 33 c15 90 119 139 212 100z"/>
<path d="M5165 1950 c-38 -5 -97 -17 -130 -28 l-60 -18 1 -51 c2 -60 20 -119
39 -127 7 -2 31 0 52 6 21 7 93 12 161 12 119 1 124 0 143 -23 14 -17 19 -36
17 -65 l-3 -41 -140 -5 c-134 -5 -144 -7 -207 -38 -105 -52 -152 -126 -151
-239 1 -114 69 -202 186 -239 163 -51 517 -10 557 66 8 15 10 104 8 303 l-3
282 -28 58 c-32 64 -72 99 -147 128 -61 23 -195 32 -295 19z m223 -601 c3 -93
2 -97 -20 -103 -45 -12 -160 -6 -193 9 -81 39 -69 158 18 184 18 5 68 9 112 8
l80 -2 3 -96z"/>
<path d="M7101 1949 c-132 -26 -233 -119 -282 -260 -34 -96 -33 -275 1 -379
32 -98 104 -176 195 -210 83 -31 219 -38 316 -16 103 23 179 59 179 86 0 31
-57 150 -72 150 -7 0 -42 -10 -78 -21 -88 -29 -182 -29 -237 0 -50 25 -71 54
-75 101 l-3 35 220 5 c149 3 227 9 242 17 55 32 58 186 6 294 -77 161 -230
234 -412 198z m164 -203 c39 -17 75 -68 75 -107 l0 -26 -125 -7 c-68 -4 -134
-5 -145 -1 -27 9 -26 43 3 86 41 62 120 85 192 55z"/>
<path d="M1729 1930 c-60 -10 -95 -34 -108 -72 -7 -20 -11 -162 -11 -399 0
-432 -14 -393 136 -387 71 2 97 7 104 18 6 9 10 148 10 327 l0 311 41 7 c45 8
119 0 162 -17 16 -6 37 -28 50 -52 21 -39 22 -55 25 -309 l3 -268 25 -10 c31
-11 184 -12 202 -1 15 10 24 397 12 520 -17 161 -84 263 -206 312 -53 21 -77
24 -229 26 -93 1 -191 -1 -216 -6z"/>
<path d="M5959 1930 c-60 -10 -95 -34 -108 -72 -14 -39 -15 -746 -1 -768 12
-19 171 -27 213 -11 l27 11 0 319 0 319 54 6 c98 13 173 -12 203 -67 16 -28
18 -67 21 -305 l3 -273 27 -10 c29 -12 196 -9 208 3 11 12 14 423 3 523 -17
159 -82 255 -207 306 -51 20 -76 23 -227 25 -93 1 -191 -1 -216 -6z"/>
<path d="M1145 1897 c-3 -12 -5 -178 -3 -367 3 -324 4 -347 23 -379 36 -62
143 -94 204 -62 21 12 21 15 21 409 0 296 -3 401 -12 410 -8 8 -49 12 -120 12
-104 0 -108 -1 -113 -23z"/>
</g>
</svg>
